Coordinates
version=1
nRows=43
nColumns=12
inDegrees=yes

Units are S.I. units (second, meters, Newtons, ...)
Angles are in degrees

endheader
time	SC_y	SC_z	SC_x	AC_y	AC_z	AC_x	GH_y	GH_z	GH_yy	EL_x	PS_y
       0.0              -56.66          18.62          65.66          41.44         -1.166         -19.88          31.39        -0.1912          137.9          119.7          152.0
   0.01078              -56.66          18.62          65.66          41.44         -1.165         -19.87          31.36        -0.1907          138.0          119.7          152.0
   0.02156              -56.65          18.62          65.66          41.44         -1.163         -19.87          31.34        -0.1902          138.0          119.7          152.0
   0.03234              -56.65          18.62          65.66          41.44         -1.161         -19.86          31.31        -0.1897          138.0          119.7          152.0
   0.04312              -56.64          18.63          65.67          41.44         -1.159         -19.86          31.29        -0.1891          138.0          119.7          152.0
    0.0539              -56.64          18.63          65.67          41.44         -1.157         -19.85          31.26        -0.1885          138.0          119.7          152.0
   0.06468              -56.63          18.64          65.67          41.44         -1.155         -19.84          31.23        -0.1879          138.0          119.7          151.9
   0.07546              -56.62          18.64          65.68          41.44         -1.153         -19.84          31.19        -0.1872          138.0          119.7          151.9
   0.08624              -56.62          18.64          65.68          41.44          -1.15         -19.83          31.16        -0.1864          138.0          119.7          151.9
   0.09702              -56.61          18.65          65.68          41.44         -1.148         -19.82          31.12        -0.1856          138.0          119.7          151.9
    0.1078               -56.6          18.65          65.69          41.45         -1.145         -19.81          31.08        -0.1847          138.0          119.7          151.9
    0.1186              -56.59          18.66          65.69          41.45         -1.142          -19.8          31.03        -0.1838          138.0          119.7          151.9
    0.1294              -56.58          18.67           65.7          41.45         -1.139         -19.79          30.99        -0.1828          138.0          119.7          151.9
    0.1401              -56.57          18.67           65.7          41.45         -1.135         -19.78          30.94        -0.1817          138.1          119.6          151.9
    0.1509              -56.56          18.68          65.71          41.45         -1.131         -19.77          30.88        -0.1806          138.1          119.6          151.9
    0.1617              -56.54          18.69          65.72          41.45         -1.127         -19.76          30.82        -0.1793          138.1          119.6          151.8
    0.1725              -56.53          18.69          65.72          41.46         -1.122         -19.75          30.75        -0.1779          138.1          119.6          151.8
    0.1833              -56.52           18.7          65.73          41.46         -1.117         -19.73          30.68        -0.1764          138.1          119.6          151.8
     0.194               -56.5          18.71          65.74          41.46         -1.112         -19.71           30.6        -0.1748          138.2          119.6          151.8
    0.2048              -56.48          18.72          65.75          41.46         -1.106          -19.7          30.52         -0.173          138.2          119.6          151.8
    0.2156              -56.46          18.73          65.76          41.46           -1.1         -19.68          30.43         -0.171          138.2          119.5          151.8
    0.2264              -56.44          18.75          65.77          41.47         -1.092         -19.66          30.32        -0.1688          138.2          119.5          151.7
    0.2372              -56.42          18.76          65.78          41.47         -1.085         -19.63          30.21        -0.1664          138.3          119.5          151.7
     0.248              -56.39          18.78          65.79          41.48         -1.076         -19.61          30.08        -0.1638          138.3          119.5          151.7
    0.2587              -56.36          18.79          65.81          41.48         -1.066         -19.58          29.94        -0.1608          138.3          119.4          151.6
    0.2695              -56.33          18.81          65.82          41.48         -1.055         -19.55          29.79        -0.1575          138.4          119.4          151.6
    0.2803              -56.29          18.84          65.84          41.49         -1.043         -19.51          29.61        -0.1538          138.4          119.4          151.6
    0.2911              -56.25          18.86          65.86           41.5         -1.029         -19.47          29.41        -0.1497          138.5          119.3          151.5
    0.3019               -56.2          18.89          65.88           41.5         -1.014         -19.42          29.19         -0.145          138.5          119.3          151.5
    0.3126              -56.15          18.92          65.91          41.51        -0.9962         -19.37          28.94        -0.1397          138.6          119.2          151.4
    0.3234              -56.09          18.95          65.94          41.52        -0.9762         -19.31          28.65        -0.1336          138.7          119.1          151.3
    0.3342              -56.02           19.0          65.97          41.53        -0.9532         -19.24          28.32        -0.1266          138.8          119.1          151.2
     0.345              -55.94          19.04          66.01          41.54        -0.9266         -19.16          27.94        -0.1186          138.9          119.0          151.1
    0.3558              -55.84           19.1          66.06          41.55        -0.8957         -19.07          27.49        -0.1092          139.0          118.9          151.0
    0.3665              -55.73          19.16          66.11          41.57        -0.8596         -18.96          26.97       -0.09826          139.1          118.8          150.9
    0.3773              -55.61          19.24          66.17          41.59         -0.817         -18.84          26.36       -0.08535          139.3          118.6          150.8
    0.3881              -55.45          19.33          66.25          41.61        -0.7664         -18.69          25.63       -0.07001          139.5          118.5          150.6
    0.3989              -55.27          19.44          66.34          41.63        -0.7057         -18.51          24.76       -0.05163          139.7          118.3          150.4
    0.4097              -55.05          19.57          66.45          41.67        -0.6323         -18.29           23.7       -0.02938          140.0          118.1          150.1
    0.4204              -54.78          19.73          66.58           41.7        -0.5426         -18.02          22.41      -0.002206          140.3          117.8          149.8
    0.4312              -54.44          19.93          66.74          41.75        -0.4319         -17.69          20.82        0.03133          140.7          117.4          149.4
     0.442              -54.02          20.17          66.95          41.81        -0.2939         -17.28          18.83        0.07316          141.3          117.0          148.9
    0.4528               -53.5          20.48           67.2          41.89        -0.1201         -16.76          16.33         0.1258          141.9          116.4          148.3
